Coordinates
version=1
nRows=19
nColumns=24
inDegrees=yes

Units are S.I. units (second, meters, Newtons, ...)
Angles are in degrees.

endheader
time	pelvis_tilt	pelvis_list	pelvis_rotation	pelvis_tx	pelvis_ty	pelvis_tz	hip_flexion_r	hip_adduction_r	hip_rotation_r	knee_angle_r	ankle_angle_r	subtalar_angle_r	mtp_angle_r	hip_flexion_l	hip_adduction_l	hip_rotation_l	knee_angle_l	ankle_angle_l	subtalar_angle_l	mtp_angle_l	lumbar_extension	lumbar_bending	lumbar_rotation
      2.88500000	    -19.38380609	      0.72109718	    362.52662885	      0.17005963	      1.37443527	     -1.03259644	     27.87177475	      1.20944628	      1.48700674	    -12.60951367	     -1.12318525	     -8.08279738	      6.40630436	     33.16921847	      4.19970345	      5.04151504	    -55.71138940	     -2.24444186	     10.66178359	     40.76317300	     26.85388176	      5.93166131	   -214.04233698
      2.89000000	    -19.49136234	      0.85968019	    362.52993860	      0.17439649	      1.37482231	     -1.03231828	     27.64871727	      1.10339585	      1.60133842	    -12.50186387	     -0.96297956	     -8.16855112	      6.35060615	     33.83324820	      4.32382311	      4.94261613	    -55.57962057	     -1.72510873	     10.58770350	     40.07375890	     26.90819273	      5.73375935	   -214.00945484
      2.89500000	    -19.55579165	      1.01345545	    362.54445560	      0.17874023	      1.37525941	     -1.03207946	     27.36849660	      0.97607599	      1.71822893	    -12.37561807	     -0.81578319	     -8.26450817	      6.28791817	     34.42470445	      4.46903423	      4.84974777	    -55.36574748	     -1.26167215	     10.44375003	     39.42906309	     26.90955274	      5.52146139	   -213.96879231
      2.90000000	    -19.63163977	      1.16602261	    362.56639767	      0.18309999	      1.37567872	     -1.03187790	     27.09453416	      0.84479267	      1.83846830	    -12.23816211	     -0.69195993	     -8.39069301	      6.23373050	     35.00860942	      4.61851704	      4.76366027	    -55.07970754	     -0.86326633	     10.19299037	     38.91444604	     26.93339583	      5.31249392	   -213.90048350
      2.90500000	    -19.69850631	      1.33504723	    362.59831238	      0.18746714	      1.37611043	     -1.03169573	     26.80429744	      0.69153318	      1.97764586	    -12.09184286	     -0.56460853	     -8.50147811	      6.17986197	     35.55758984	      4.78663461	      4.68097852	    -54.71717131	     -0.48916110	      9.97849852	     38.41666698	     26.94540772	      5.07747867	   -213.87488709
      2.91000000	    -19.76577767	      1.49213707	    362.63585646	      0.19184091	      1.37651506	     -1.03153109	     26.51493370	      0.54761109	      2.07796968	    -11.94688593	     -0.43655490	     -8.63531555	      6.10938857	     36.09031142	      4.94074287	      4.59645303	    -54.30002184	     -0.11907809	      9.77300794	     37.87781052	     26.96235628	      4.85520272	   -213.83776365
      2.91500000	    -19.84042845	      1.65375922	    362.68460054	      0.19620191	      1.37689187	     -1.03139796	     26.23251466	      0.39202459	      2.18586598	    -11.79993295	     -0.30760948	     -8.75739788	      6.04680631	     36.61148005	      5.10803289	      4.52767786	    -53.81512698	      0.20143160	      9.55246856	     37.43270155	     26.98237124	      4.62121235	   -213.82276118
      2.92000000	    -19.90639765	      1.83990905	    362.74036787	      0.20058492	      1.37728508	     -1.03125010	     25.93630102	      0.21035869	      2.29776183	    -11.64943187	     -0.17137422	     -8.87622707	      6.01340424	     37.09040013	      5.29753317	      4.45727330	    -53.23848540	      0.44302239	      9.32264075	     37.18062087	     26.99418696	      4.34550087	   -213.83487763
      2.92500000	    -19.96994916	      1.99247817	    362.79634138	      0.20495257	      1.37764471	     -1.03117738	     25.63465831	      0.05725180	      2.39073524	    -11.48685537	     -0.07411508	     -9.00142470	      5.92636381	     37.55664206	      5.46757926	      4.41167257	    -52.63388547	      0.71916401	      9.02257474	     36.70103951	     27.00426936	      4.12949280	   -213.79249674
      2.93000000	    -20.04539840	      2.16768800	    362.86802496	      0.20930734	      1.37795851	     -1.03108672	     25.35361086	     -0.12398170	      2.46197712	    -11.34249005	      0.06764950	     -9.12106969	      5.89129124	     38.01280401	      5.65841295	      4.36591120	    -51.95062674	      0.91486811	      8.82734288	     36.48254704	     27.02060661	      3.86508700	   -213.81087420
      2.93500000	    -20.11681297	      2.33550462	    362.93745475	      0.21366835	      1.37826226	     -1.03102151	     25.07013495	     -0.29869038	      2.53364180	    -11.20232999	      0.18990583	     -9.23908528	      5.83877313	     38.44026692	      5.84809515	      4.33501901	    -51.20861253	      1.08248538	      8.54839351	     36.19235919	     27.04004239	      3.61710774	   -213.79880232
      2.94000000	    -20.18386938	      2.47266336	    363.00509609	      0.21802508	      1.37854172	     -1.03099969	     24.77565217	     -0.44462506	      2.60779664	    -11.04646077	      0.30334906	     -9.32636311	      5.74679053	     38.84790800	      6.01724232	      4.33214028	    -50.43052043	      1.26410350	      8.24091615	     35.75556870	     27.04689150	      3.41078692	   -213.77939443
      2.94500000	    -20.27097626	      2.62458358	    363.08214760	      0.22237121	      1.37875895	     -1.03095643	     24.51457421	     -0.60864925	      2.66064235	    -10.91530045	      0.44229950	     -9.41756041	      5.69413999	     39.25861904	      6.19802853	      4.32972616	    -49.59214596	      1.38461195	      8.02720577	     35.48533944	     27.07782346	      3.17286948	   -213.78988361
      2.95000000	    -20.35497920	      2.76537883	    363.15944081	      0.22672043	      1.37894730	     -1.03093385	     24.25323232	     -0.76340716	      2.69237014	    -10.78906481	      0.57978683	     -9.49879851	      5.64326342	     39.64343549	      6.37059160	      4.33807421	    -48.69876654	      1.48283065	      7.78523574	     35.22082404	     27.10615928	      2.95196445	   -213.78141791
      2.95500000	    -20.43479843	      2.89550055	    363.23531725	      0.23106525	      1.37911142	     -1.03092256	     23.99300693	     -0.90818246	      2.69741925	    -10.67249981	      0.72203714	     -9.56122230	      5.58782640	     40.00305836	      6.53298664	      4.35539236	    -47.75527015	      1.56979318	      7.53764587	     34.93990168	     27.12498419	      2.74557504	   -213.76895070
      2.96000000	    -20.51586219	      3.02841679	    363.31191824	      0.23541161	      1.37924617	     -1.03092274	     23.73712141	     -1.05769710	      2.71328356	    -10.56229305	      0.87353289	     -9.60818952	      5.54802923	     40.33840787	      6.70002412	      4.38677294	    -46.75057933	      1.61244444	      7.31420106	     34.70047692	     27.14498368	      2.53792316	   -213.76227787
      2.96500000	    -20.61309729	      3.14618172	    363.38606236	      0.23974232	      1.37931560	     -1.03092617	     23.50882253	     -1.19154099	      2.71685802	    -10.46806471	      1.02866202	     -9.65102128	      5.51745089	     40.67337391	      6.85031402	      4.42713237	    -45.70004881	      1.63480810	      7.10056214	     34.48516658	     27.18033268	      2.34749029	   -213.75379642
      2.97000000	    -20.69403207	      3.26945450	    363.45594658	      0.24408901	      1.37937983	     -1.03092590	     23.26468638	     -1.33032796	      2.71166013	    -10.37881763	      1.19522742	     -9.67123425	      5.49317747	     40.96095648	      7.00054571	      4.46860247	    -44.58692080	      1.63018754	      6.87840196	     34.27105801	     27.19704205	      2.15179438	   -213.73543804
      2.97500000	    -20.79747124	      3.38221854	    363.52218111	      0.24843127	      1.37938065	     -1.03093200	     23.05295437	     -1.45826223	      2.70194282	    -10.30321903	      1.36573626	     -9.68221726	      5.47139317	     41.25013936	      7.13717526	      4.51645065	    -43.42152355	      1.60960943	      6.66994165	     34.07692094	     27.23830504	      1.97066796	   -213.70970595
